<?xml version="1.0" encoding="utf-8"?>
<!-- Generator: Adobe Illustrator 17.1.0, SVG Export Plug-In . SVG Version: 6.00 Build 0)  -->
<!DOCTYPE svg PUBLIC "-//W3C//DTD SVG 1.1//EN" "http://www.w3.org/Graphics/SVG/1.1/DTD/svg11.dtd">
<svg version="1.1" id="Layer_1" xmlns="http://www.w3.org/2000/svg" xmlns:xlink="http://www.w3.org/1999/xlink" x="0px" y="0px"
	 width="50px" height="50px" viewBox="0 0 50 50" enable-background="new 0 0 50 50" xml:space="preserve">
<path fill="#AFAFAF" d="M14.6,14.8l25.6,25.6c4,4,3.8,9.5,3.8,9.5s-5.9-0.2-9.5-3.8L8.9,20.5L14.6,14.8z"/>
<path fill="#999999" d="M45.8,0.2c-0.4,1.4-1.5,2.6-3,3.1c-0.4,0.1-0.9,0.2-1.3,0.2L39,2.8l-2.2-0.6l-0.5-0.1
	c-0.7-0.2-1.5,0.2-1.7,1c-0.2,0.7,0.2,1.5,1,1.7l4.2,1.1l0.9,0.2c0.7,0.1,1.5,0.1,2.2-0.2c0.6-0.2,1.1-0.5,1.6-0.9
	C45.8,3.9,46.4,2,45.8,0.2z"/>
<path fill="#E5E5E5" d="M38.2,11.9c-0.7,0.2-1.5-0.2-1.7-1l-1.9-7.1c-0.2-0.7,0.2-1.5,1-1.7l0,0c0.7-0.2,1.5,0.2,1.7,1l1.9,7.1
	C39.4,10.9,38.9,11.7,38.2,11.9L38.2,11.9z"/>
<path fill="#999999" d="M29.3,8.3c-0.2,0.7,0.2,1.5,1,1.7l7.1,1.9c0.7,0.2,1.5-0.2,1.7-1l0,0c0.2-0.7-0.2-1.5-1-1.7L31,7.3
	C30.3,7.1,29.5,7.6,29.3,8.3L29.3,8.3z"/>
<path fill="#E5E5E5" d="M32.9,17.1c-0.7,0.2-1.5-0.2-1.7-1L29.3,9c-0.2-0.7,0.2-1.5,1-1.7l0,0c0.7-0.2,1.5,0.2,1.7,1l1.9,7.1
	C34.1,16.2,33.7,16.9,32.9,17.1L32.9,17.1z"/>
<path fill="#999999" d="M24.1,13.5c-0.2,0.7,0.2,1.5,1,1.7l7.1,1.9c0.7,0.2,1.5-0.2,1.7-1l0,0c0.2-0.7-0.2-1.5-1-1.7l-7.1-1.9
	C25.1,12.4,24.3,12.8,24.1,13.5L24.1,13.5z"/>
<path fill="#E5E5E5" d="M27.7,22.4c-0.7,0.2-1.5-0.2-1.7-1l-1.9-7.1c-0.2-0.7,0.2-1.5,1-1.7l0,0c0.7-0.2,1.5,0.2,1.7,1l1.9,7.1
	C28.9,21.4,28.4,22.2,27.7,22.4L27.7,22.4z"/>
<path fill="#999999" d="M18.8,18.8c-0.2,0.7,0.2,1.5,1,1.7l7.1,1.9c0.7,0.2,1.5-0.2,1.7-1l0,0c0.2-0.7-0.2-1.5-1-1.7l-7.1-1.9
	C19.8,17.6,19,18,18.8,18.8L18.8,18.8z"/>
<path fill="#E5E5E5" d="M22.5,27.6c-0.7,0.2-1.5-0.2-1.7-1l-1.9-7.1c-0.2-0.7,0.2-1.5,1-1.7l0,0c0.7-0.2,1.5,0.2,1.7,1l1.9,7.1
	C23.7,26.7,23.2,27.4,22.5,27.6L22.5,27.6z"/>
<path fill="#999999" d="M13.6,24c-0.2,0.7,0.2,1.5,1,1.7l7.1,1.9c0.7,0.2,1.5-0.2,1.7-1l0,0c0.2-0.7-0.2-1.5-1-1.7L15.3,23
	C14.6,22.8,13.8,23.3,13.6,24L13.6,24z"/>
<path fill="#0072C6" d="M19.9,42.6c0,4.1-3.3,7.4-7.4,7.4l0,0c-4.1,0-7.4-3.3-7.4-7.4V7.4C5.1,3.3,8.4,0,12.5,0l0,0
	c4.1,0,7.4,3.3,7.4,7.4V42.6z"/>
<path opacity="0.1" fill="#FFFFFF" d="M5.1,32.6V7.4C5.1,3.3,8.4,0,12.5,0l0,0c4.1,0,7.4,3.3,7.4,7.4v12.2L5.1,32.6z"/>
<path fill="#FFFFFF" d="M17.5,27.7c0-0.6-0.5-1.2-1.2-1.2c0,0-0.1,0-0.1,0c0.1-0.3,0.1-0.5,0.1-0.8c0-1.7-1.4-3.1-3.1-3.1
	c-1.4,0-2.5,0.9-2.9,2.1c-0.2-0.1-0.4-0.1-0.7-0.1c-1.2,0-2.1,1-2.1,2.1c0,1.2,0.9,2.1,2.1,2.1c0,0,0,0,0,0v0h6.8l0,0
	C17,28.8,17.5,28.3,17.5,27.7"/>
</svg>
