<?xml version="1.0" encoding="utf-8"?>
<!-- Generator: Adobe Illustrator 19.1.0, SVG Export Plug-In . SVG Version: 6.00 Build 0)  -->
<svg version="1.1" id="Layer_1" xmlns="http://www.w3.org/2000/svg" xmlns:xlink="http://www.w3.org/1999/xlink" x="0px" y="0px"
	 viewBox="0 0 42 15" style="enable-background:new 0 0 42 15;" xml:space="preserve">
<style type="text/css">
	.st0{fill:#808285;}
	.st1{fill:#B0B0B0;}
	.st2{fill:#989898;}
	.st3{fill:#E5E5E5;}
	.st4{fill:#2272B9;}
	.st5{opacity:0.1;fill:#FFFFFF;enable-background:new    ;}
	.st6{fill:#FFFFFF;}
</style>
<g>
	<path class="st0" d="M18.4,13.9v-1.4c-0.8,1.1-1.8,1.6-3.1,1.6c-0.6,0-1.1-0.1-1.6-0.3s-0.9-0.5-1.1-0.8s-0.4-0.7-0.5-1.2
		c-0.1-0.3-0.1-0.8-0.1-1.5v-6h1.7v5.3c0,0.9,0,1.4,0.1,1.7c0.1,0.4,0.3,0.8,0.7,1c0.3,0.2,0.8,0.4,1.3,0.4s1-0.1,1.4-0.4
		c0.4-0.3,0.8-0.6,0.9-1c0.2-0.4,0.3-1.1,0.3-1.9V4.2h1.7v9.6H18.4z"/>
	<path class="st0" d="M28.9,13.9v-1.2c-0.6,1-1.6,1.4-2.8,1.4c-0.8,0-1.5-0.2-2.2-0.6s-1.2-1-1.5-1.8S21.9,10,21.9,9
		c0-1,0.2-1.8,0.5-2.6s0.8-1.4,1.5-1.8C24.5,4.2,25.3,4,26.1,4c0.6,0,1.1,0.1,1.6,0.4s0.8,0.6,1.1,1V0.5h1.7v13.3H28.9z M23.6,9
		c0,1.2,0.3,2.2,0.8,2.8c0.5,0.6,1.2,0.9,1.9,0.9c0.7,0,1.4-0.3,1.9-0.9c0.5-0.6,0.8-1.5,0.8-2.7c0-1.3-0.3-2.3-0.8-2.9
		c-0.5-0.6-1.2-0.9-1.9-0.9c-0.7,0-1.4,0.3-1.9,0.9S23.6,7.8,23.6,9z"/>
	<path class="st0" d="M39.6,13.9v-1.4c-0.8,1.1-1.8,1.6-3.1,1.6c-0.6,0-1.1-0.1-1.6-0.3c-0.5-0.2-0.9-0.5-1.1-0.8
		c-0.2-0.3-0.4-0.7-0.5-1.2c-0.1-0.3-0.1-0.8-0.1-1.5v-6h1.7v5.3c0,0.9,0,1.4,0.1,1.7c0.1,0.4,0.3,0.8,0.7,1
		c0.3,0.2,0.8,0.4,1.3,0.4s1-0.1,1.4-0.4c0.4-0.3,0.8-0.6,0.9-1c0.2-0.4,0.3-1.1,0.3-1.9V4.2h1.7v9.6H39.6z"/>
</g>
<g>
	<path class="st1" d="M2.9,4.8l6.5,6.3c1,1,1,2.3,1,2.3s-1.5,0-2.4-0.9L1.5,6.2L2.9,4.8z"/>
	<path class="st2" d="M10.8,1.2c-0.1,0.3-0.4,0.6-0.8,0.8C10,2,9.9,2,9.8,2L9.1,1.8L8.6,1.7l-0.1,0C8.3,1.6,8,1.7,8,1.9
		C7.9,2.1,8,2.3,8.3,2.3l1.1,0.3l0.2,0c0.2,0,0.4,0,0.6,0c0.2,0,0.3-0.1,0.4-0.2C10.8,2.1,11,1.6,10.8,1.2z"/>
	<path class="st3" d="M8.9,4.1c-0.2,0-0.4,0-0.4-0.2L8,2.1C7.9,1.9,8,1.7,8.3,1.6l0,0c0.2,0,0.4,0,0.4,0.2l0.5,1.8
		C9.2,3.8,9.1,4,8.9,4.1L8.9,4.1z"/>
	<path class="st2" d="M6.7,3.2C6.6,3.3,6.7,3.5,6.9,3.6l1.8,0.5c0.2,0,0.4,0,0.4-0.2l0,0c0.1-0.2-0.1-0.4-0.3-0.4L7.1,2.9
		C6.9,2.9,6.7,3,6.7,3.2L6.7,3.2z"/>
	<path class="st3" d="M7.6,5.3c-0.2,0-0.4,0-0.4-0.2L6.7,3.3C6.6,3.2,6.7,3,6.9,2.9l0,0c0.2,0,0.4,0,0.4,0.2l0.5,1.8
		C7.9,5.1,7.8,5.3,7.6,5.3L7.6,5.3z"/>
	<path class="st2" d="M5.3,4.5C5.3,4.6,5.4,4.8,5.6,4.9l1.8,0.5c0.2,0,0.4,0,0.4-0.2l0,0c0.1-0.2-0.1-0.4-0.3-0.4L5.8,4.2
		C5.6,4.2,5.4,4.3,5.3,4.5L5.3,4.5z"/>
	<path class="st3" d="M6.2,6.7c-0.2,0-0.4,0-0.4-0.2L5.3,4.6C5.3,4.5,5.4,4.3,5.6,4.2l0,0c0.2,0,0.4,0,0.4,0.2l0.5,1.8
		C6.5,6.4,6.4,6.6,6.2,6.7L6.2,6.7z"/>
	<path class="st2" d="M4,5.8C3.9,5.9,4,6.1,4.2,6.2L6,6.7c0.2,0,0.4,0,0.4-0.2l0,0C6.5,6.2,6.4,6,6.2,6L4.4,5.5C4.2,5.5,4,5.6,4,5.8
		L4,5.8z"/>
	<path class="st3" d="M4.9,7.9c-0.2,0-0.4,0-0.4-0.2L4,5.9C4,5.8,4.1,5.6,4.3,5.5l0,0c0.2,0,0.4,0,0.4,0.2l0.5,1.8
		C5.2,7.7,5.1,7.9,4.9,7.9L4.9,7.9z"/>
	<path class="st2" d="M2.7,7C2.6,7.2,2.7,7.4,2.9,7.5l1.8,0.5c0.2,0,0.4,0,0.4-0.2l0,0c0.1-0.2-0.1-0.4-0.3-0.4L3.1,6.8
		C2.9,6.8,2.7,6.9,2.7,7L2.7,7z"/>
	<path class="st4" d="M4.3,11.6c0,1-0.8,1.8-1.9,1.8l0,0c-1,0-1.9-0.8-1.9-1.8V2.9c0-1,0.8-1.8,1.9-1.8l0,0c1,0,1.9,0.8,1.9,1.8
		V11.6z"/>
	<path class="st5" d="M0.5,9.2V2.9c0-1,0.8-1.8,1.9-1.8l0,0c1,0,1.9,0.8,1.9,1.8v3L0.5,9.2z"/>
	<path class="st6" d="M3.7,8c0-0.1-0.1-0.3-0.3-0.3h0c0-0.1,0-0.1,0-0.2C3.3,7,3,6.7,2.6,6.7c-0.4,0-0.6,0.2-0.7,0.5
		c-0.1,0-0.1,0-0.2,0c-0.3,0-0.5,0.2-0.5,0.5c0,0.3,0.2,0.5,0.5,0.5l0,0l0,0h1.7l0,0C3.5,8.2,3.7,8.1,3.7,8"/>
</g>
</svg>
